<svg width="29" height="29" viewBox="0 0 29 29" fill="none" xmlns="http://www.w3.org/2000/svg">
<circle cx="10.8753" cy="10.875" r="3.83333" stroke="white" stroke-width="2" strokeLinecap="round"/>
<path d="M14.6437 10.7708C14.9918 10.1679 15.5651 9.72798 16.2376 9.54779C16.9101 9.3676 17.6266 9.46193 18.2295 9.81003C18.8324 10.1581 19.2724 10.7315 19.4525 11.4039C19.6327 12.0764 19.5384 12.7929 19.1903 13.3958C18.8422 13.9988 18.2689 14.4387 17.5964 14.6189C16.9239 14.7991 16.2074 14.7048 15.6045 14.3567C15.0016 14.0086 14.5616 13.4352 14.3814 12.7627C14.2012 12.0903 14.2956 11.3738 14.6437 10.7708L14.6437 10.7708Z" stroke="white" stroke-width="2"/>
<path d="M16.7738 22.9583L15.7935 23.1558L15.9551 23.9583H16.7738V22.9583ZM21.4878 21.8583L22.44 21.5529V21.5529L21.4878 21.8583ZM14.2354 18.9836L13.6305 18.1872L12.4739 19.0657L13.7072 19.8327L14.2354 18.9836ZM20.6174 21.9583H16.7738V23.9583H20.6174V21.9583ZM20.5355 22.1637C20.5302 22.1471 20.5255 22.1149 20.5333 22.0757C20.5407 22.0387 20.5562 22.0106 20.5711 21.9923C20.5998 21.957 20.6238 21.9583 20.6174 21.9583V23.9583C21.776 23.9583 22.8662 22.8817 22.44 21.5529L20.5355 22.1637ZM16.9169 19.125C19.1467 19.125 20.1102 20.8376 20.5355 22.1637L22.44 21.5529C21.9504 20.0264 20.5307 17.125 16.9169 17.125V19.125ZM14.8402 19.7799C15.3404 19.3999 16.003 19.125 16.9169 19.125V17.125C15.5591 17.125 14.4731 17.5473 13.6305 18.1872L14.8402 19.7799ZM13.7072 19.8327C15.0347 20.6583 15.5784 22.0879 15.7935 23.1558L17.7541 22.7609C17.4953 21.4759 16.7802 19.3887 14.7635 18.1344L13.7072 19.8327Z" fill="white"/>
<path d="M10.8752 18.125C15.3639 18.125 16.5177 21.46 16.8142 23.1744C16.9084 23.7186 16.4691 24.1667 15.9168 24.1667H5.8335C5.28121 24.1667 4.84195 23.7186 4.93609 23.1744C5.23263 21.46 6.38638 18.125 10.8752 18.125Z" stroke="white" stroke-width="2" strokeLinecap="round"/>
<path d="M19 3V7" stroke="white" stroke-width="2" strokeLinecap="round"/>
<path d="M21 5L17 5" stroke="white" stroke-width="2" strokeLinecap="round"/>
</svg>
