<svg width="29" height="31" viewBox="0 0 29 31" fill="none" xmlns="http://www.w3.org/2000/svg">
<path d="M7.52248 11.2977C7.88922 7.99704 10.6791 5.5 14 5.5V5.5C17.3209 5.5 20.1108 7.99704 20.4775 11.2977L20.7713 13.9416C20.807 14.263 20.8249 14.4238 20.8489 14.582C20.9892 15.5064 21.2906 16.3991 21.7392 17.2195C21.816 17.3599 21.8992 17.4986 22.0656 17.7759L22.7399 18.8999C23.4925 20.1541 23.8687 20.7812 23.6349 21.267C23.6156 21.307 23.5937 21.3457 23.5693 21.3829C23.273 21.8333 22.5417 21.8333 21.0791 21.8333H6.92094C5.45832 21.8333 4.72701 21.8333 4.43071 21.3829C4.4063 21.3457 4.38439 21.307 4.36513 21.267C4.13129 20.7812 4.50755 20.1541 5.26006 18.8999L5.93443 17.7759C6.10083 17.4986 6.18404 17.3599 6.26083 17.2195C6.70945 16.3991 7.01077 15.5064 7.15111 14.582C7.17514 14.4238 7.193 14.263 7.22871 13.9416L7.52248 11.2977Z" stroke="white" stroke-width="2"/>
<path d="M9.33317 21.8333C9.33317 22.4462 9.45388 23.053 9.6884 23.6192C9.92292 24.1854 10.2667 24.6998 10.7 25.1332C11.1333 25.5665 11.6478 25.9102 12.214 26.1448C12.7802 26.3793 13.387 26.5 13.9998 26.5C14.6127 26.5 15.2195 26.3793 15.7857 26.1448C16.3519 25.9102 16.8663 25.5665 17.2997 25.1332C17.733 24.6998 18.0768 24.1854 18.3113 23.6192C18.5458 23.053 18.6665 22.4462 18.6665 21.8333" stroke="white" stroke-width="2" strokeLinecap="round"/>
<line x1="26.8549" y1="1.26779" x2="3.54698" y2="29.7061" stroke="#202020" stroke-width="4"/>
</svg>
