<svg width="20" height="20" viewBox="0 0 20 20" fill="none" xmlns="http://www.w3.org/2000/svg">
<path d="M16.1048 4.81476L16.9363 4.25919L16.9363 4.25919L16.1048 4.81476ZM16.1048 13.5186L16.9363 14.0741L16.9363 14.0741L16.1048 13.5186ZM15.1852 14.4382L14.6296 13.6068L15.1852 14.4382ZM11.6666 14.9989L11.6622 13.9989C11.1116 14.0013 10.6666 14.4483 10.6666 14.9989H11.6666ZM11.6666 15L12.561 15.4472C12.6304 15.3084 12.6666 15.1552 12.6666 15H11.6666ZM10.8943 16.5445L11.7888 16.9917L10.8943 16.5445ZM9.10549 16.5445L9.99992 16.0973H9.99992L9.10549 16.5445ZM8.33325 15H7.33325C7.33325 15.1552 7.3694 15.3084 7.43882 15.4472L8.33325 15ZM8.33325 14.9989H9.33325C9.33325 14.4483 8.88819 14.0013 8.33761 13.9989L8.33325 14.9989ZM4.81468 14.4382L5.37025 13.6068H5.37025L4.81468 14.4382ZM3.89502 13.5186L3.06355 14.0741H3.06355L3.89502 13.5186ZM3.89502 4.81476L4.72649 5.37033L3.89502 4.81476ZM4.81468 3.8951L5.37025 4.72657L4.81468 3.8951ZM15.1852 3.8951L15.7407 3.06363V3.06363L15.1852 3.8951ZM17.6666 9.16666C17.6666 8.01709 17.6678 7.07964 17.5912 6.327C17.513 5.55764 17.3453 4.87126 16.9363 4.25919L15.2733 5.37033C15.4261 5.59901 15.5393 5.91819 15.6015 6.52941C15.6654 7.15734 15.6666 7.97546 15.6666 9.16666H17.6666ZM16.9363 14.0741C17.3453 13.4621 17.513 12.7757 17.5912 12.0063C17.6678 11.2537 17.6666 10.3162 17.6666 9.16666H15.6666C15.6666 10.3579 15.6654 11.176 15.6015 11.8039C15.5393 12.4151 15.4261 12.7343 15.2733 12.963L16.9363 14.0741ZM15.7407 15.2697C16.2139 14.9535 16.6201 14.5473 16.9363 14.0741L15.2733 12.963C15.1031 13.2178 14.8844 13.4365 14.6296 13.6068L15.7407 15.2697ZM11.6709 15.9988C12.5652 15.9949 13.3239 15.9784 13.9617 15.8902C14.6155 15.7998 15.2062 15.6269 15.7407 15.2697L14.6296 13.6068C14.4297 13.7403 14.1601 13.8438 13.6878 13.9091C13.1994 13.9766 12.566 13.9949 11.6622 13.9989L11.6709 15.9988ZM12.6666 15V14.9989H10.6666V15H12.6666ZM11.7888 16.9917L12.561 15.4472L10.7722 14.5528L9.99992 16.0973L11.7888 16.9917ZM8.21106 16.9917C8.94811 18.4658 11.0517 18.4658 11.7888 16.9917L9.99992 16.0973L9.99992 16.0973L8.21106 16.9917ZM7.43882 15.4472L8.21106 16.9917L9.99992 16.0973L9.22768 14.5528L7.43882 15.4472ZM7.33325 14.9989V15H9.33325V14.9989H7.33325ZM4.25911 15.2697C4.79366 15.6269 5.38435 15.7998 6.03818 15.8902C6.67594 15.9784 7.4346 15.9949 8.32889 15.9988L8.33761 13.9989C7.43381 13.9949 6.80042 13.9766 6.31204 13.9091C5.83972 13.8438 5.57017 13.7403 5.37025 13.6068L4.25911 15.2697ZM3.06355 14.0741C3.3797 14.5473 3.78596 14.9535 4.25912 15.2697L5.37025 13.6068C5.11548 13.4365 4.89673 13.2178 4.72649 12.963L3.06355 14.0741ZM2.33325 9.16666C2.33325 10.3162 2.33204 11.2537 2.40861 12.0063C2.48687 12.7757 2.65458 13.4621 3.06355 14.0741L4.72649 12.963C4.57369 12.7343 4.46052 12.4151 4.39834 11.8039C4.33446 11.176 4.33325 10.3579 4.33325 9.16666H2.33325ZM3.06355 4.25919C2.65458 4.87126 2.48687 5.55764 2.40861 6.327C2.33204 7.07964 2.33325 8.01709 2.33325 9.16666H4.33325C4.33325 7.97546 4.33446 7.15734 4.39834 6.52941C4.46052 5.91819 4.57369 5.59901 4.72649 5.37033L3.06355 4.25919ZM4.25911 3.06363C3.78596 3.37978 3.3797 3.78603 3.06355 4.25919L4.72649 5.37033C4.89673 5.11555 5.11548 4.8968 5.37025 4.72657L4.25911 3.06363ZM9.16659 2.33333C8.01701 2.33333 7.07956 2.33212 6.32692 2.40868C5.55757 2.48695 4.87118 2.65465 4.25911 3.06363L5.37025 4.72657C5.59893 4.57377 5.91811 4.46059 6.52933 4.39841C7.15726 4.33454 7.97539 4.33333 9.16659 4.33333V2.33333ZM10.8333 2.33333H9.16659V4.33333H10.8333V2.33333ZM15.7407 3.06363C15.1287 2.65465 14.4423 2.48695 13.6729 2.40868C12.9203 2.33212 11.9828 2.33333 10.8333 2.33333V4.33333C12.0245 4.33333 12.8426 4.33454 13.4705 4.39841C14.0817 4.46059 14.4009 4.57377 14.6296 4.72657L15.7407 3.06363ZM16.9363 4.25919C16.6201 3.78603 16.2139 3.37978 15.7407 3.06363L14.6296 4.72657C14.8844 4.8968 15.1031 5.11555 15.2733 5.37033L16.9363 4.25919Z" fill="white"/>
<circle cx="13.3333" cy="9.16666" r="0.833333" fill="white" stroke="white" strokeLinecap="round"/>
<circle cx="10.0001" cy="9.16666" r="0.833333" fill="white" stroke="white" strokeLinecap="round"/>
<circle cx="6.66659" cy="9.16666" r="0.833333" fill="white" stroke="white" strokeLinecap="round"/>
</svg>
