<svg width="20" height="20" viewBox="0 0 20 20" fill="none" xmlns="http://www.w3.org/2000/svg">
<rect x="10.8335" y="11.6667" width="1.66667" height="1.66667" rx="0.833333" fill="white"/>
<path d="M8.33333 11.6667H5" stroke="white" strokeLinecap="round"/>
<path d="M6.6665 10L6.6665 13.3333" stroke="white" strokeLinecap="round"/>
<rect x="13.3335" y="10" width="1.66667" height="1.66667" rx="0.833333" fill="white"/>
<path d="M11.6668 6.66666V6.66666C11.6668 6.56683 11.6668 6.51691 11.6648 6.47233C11.6268 5.62149 11.0542 4.88804 10.238 4.64483C10.1952 4.63208 10.1468 4.61998 10.0499 4.59576L10.0002 4.58332C9.85604 4.54729 9.78399 4.52928 9.72076 4.50893C8.94038 4.25777 8.3923 3.5558 8.3379 2.7378C8.3335 2.67153 8.3335 2.59725 8.3335 2.4487V1.66666" stroke="white" strokeLinecap="round"/>
<path d="M2.5 11.6667C2.5 9.53432 2.5 8.46814 3.01662 7.73367C3.14962 7.54458 3.30477 7.37533 3.4781 7.23024C4.15136 6.66666 5.12869 6.66666 7.08333 6.66666H12.9167C14.8713 6.66666 15.8486 6.66666 16.5219 7.23024C16.6952 7.37533 16.8504 7.54458 16.9834 7.73367C17.5 8.46814 17.5 9.53432 17.5 11.6667C17.5 13.799 17.5 14.8652 16.9834 15.5996C16.8504 15.7887 16.6952 15.958 16.5219 16.1031C15.8486 16.6667 14.8713 16.6667 12.9167 16.6667H7.08333C5.12869 16.6667 4.15136 16.6667 3.4781 16.1031C3.30477 15.958 3.14962 15.7887 3.01662 15.5996C2.5 14.8652 2.5 13.799 2.5 11.6667Z" stroke="white"/>
</svg>
