<svg class="svg-icon" style="width: 1em; height: 1em;vertical-align: middle;fill: currentColor;overflow: hidden;" viewBox="0 0 1024 1024" version="1.1" xmlns="http://www.w3.org/2000/svg"><path d="M758.8 413.9c0-47.9-9.4-94.4-27.9-138.2-17.9-42.3-43.5-80.2-76.1-112.8S584.3 104.7 542 86.8C498.3 68.4 451.8 59 403.9 59s-94.4 9.4-138.2 27.9c-42.3 17.9-80.2 43.5-112.8 76.1-32.6 32.6-58.2 70.5-76.1 112.8C58.4 319.5 49 366 49 413.9s9.4 94.4 27.9 138.2c17.9 42.3 43.5 80.2 76.1 112.8 32.6 32.6 70.5 58.2 112.8 76.1 43.8 18.5 90.2 27.9 138.2 27.9s94.4-9.4 138.2-27.9c42.3-17.9 80.2-43.5 112.8-76.1 32.6-32.6 58.2-70.5 76.1-112.8 18.3-43.8 27.7-90.3 27.7-138.2zM403.9 746.8C220.3 746.8 71 597.5 71 413.9 71 230.3 220.3 81 403.9 81c183.6 0 332.9 149.3 332.9 332.9 0 183.6-149.3 332.9-332.9 332.9zM686.791 695.463l15.427-15.684L965.064 938.31l-15.427 15.684z" fill="" /><path d="M181.7 542.8c-36.5-75.4-41.6-153.9-41.6-154.9l-22 1.3c0.2 3.4 5.2 83.3 43.5 162.7 22.8 47.2 52.6 84.2 88.6 110.1 41 29.5 89.9 44.3 145.7 44.3 5.8 0 11.6-0.2 17.6-0.5l-1.2-22c-104.9 5.7-182.5-41.8-230.6-141z" fill="" /><path d="M454.8 695.2m-13.2 0a13.2 13.2 0 1 0 26.4 0 13.2 13.2 0 1 0-26.4 0Z" fill="" /></svg>