<svg width="20" height="20" viewBox="0 0 20 20" fill="none" xmlns="http://www.w3.org/2000/svg">
<path fill-rule="evenodd" clip-rule="evenodd" d="M8.10616 10.4798L7.35892 10.2307C5.00571 9.44631 3.8291 9.05411 3.8291 8.33335C3.8291 7.61259 5.00571 7.22039 7.35892 6.43598L12.8721 4.59826C14.5279 4.04633 15.3558 3.77036 15.7928 4.20738C16.2298 4.6444 15.9538 5.47229 15.4019 7.12808L13.5642 12.6413C12.7798 14.9945 12.3876 16.1711 11.6668 16.1711C10.9461 16.1711 10.5539 14.9945 9.76946 12.6412L9.52038 11.894L13.2073 8.20712C13.5978 7.8166 13.5978 7.18343 13.2073 6.79291C12.8167 6.40238 12.1836 6.40238 11.7931 6.79291L8.10616 10.4798Z" fill="white"/>
</svg>
